<svg class="pageTitle_svg" x="0px" y="0px"
	 viewBox="0 0 459.6 404.3" style="enable-background:new 0 0 459.6 404.3;" xml:space="preserve" width="459.6px !important">
<path d="M0,2.1h35.8c12.3,0,22.1,4.1,29.3,12.2c7.2,8.1,10.8,18.7,10.8,31.9c0,13.1-3.6,23.8-10.8,31.9
	c-7.2,8.1-16.9,12.2-29.3,12.2H0V2.1z M33.2,16.7H17.4v58.8h15.9c7.7,0,13.7-2.5,18.2-7.6c4.4-5,6.6-12.3,6.6-21.8
	c0-9.5-2.2-16.8-6.6-21.8C47,19.2,40.9,16.7,33.2,16.7z M150.9,2.1v14.6h-44.5v20.6h41.7v14.6h-41.7v23.6h45.9v14.6H89v-88H150.9z
	 M197.5,0.1c7.3,0,13.5,1,18.7,3.1c5.2,2.2,10.7,5.7,16.5,10.5l-10.2,12.2c-5.1-4.3-9.4-7.1-12.9-8.6c-3.6-1.5-7.7-2.2-12.5-2.2
	c-4.9,0-8.8,1-11.7,3c-2.9,2-4.4,4.6-4.4,7.8c0,2.2,0.7,3.9,2,5.2c1.4,1.3,3.5,2.4,6.4,3.3c3.6,1.2,8,2.3,13,3.5
	c11.7,2.9,19.8,6.1,24.3,9.5c4.5,3.5,6.8,8.8,7.1,16.1c0,8.4-3.2,15.3-9.5,20.6s-14.8,8-25.4,8c-7.7,0-14.5-1.2-20.3-3.7
	c-5.9-2.4-12.1-6.6-18.7-12.5l10.4-12.3c6,5.2,11,8.7,15,10.5c4.2,1.9,8.9,2.9,14,2.9c5.2,0,9.4-1.1,12.5-3.3
	c3.1-2.2,4.7-5.1,4.7-8.9c0-4-2.6-7-7.7-8.8c-2.4-0.7-5.9-1.6-10.4-2.6l-4.2-1c-11.7-2.8-19.6-6.1-23.9-9.9
	c-4.3-3.8-6.4-9.2-6.4-16.3c0-7.4,3.1-13.7,9.4-18.7C179.6,2.6,187.7,0.1,197.5,0.1z M265.1,2.1v88h-17.4v-88H265.1z M320,55.9V41.3
	H361v48.9h-13.3l-0.9-8.3c-5.1,6.9-13.5,10.3-25.2,10.3c-13.1,0-23.5-4.3-31.1-12.8c-7.6-8.5-11.4-19.6-11.4-33.4
	c0-13.4,4-24.4,12-33c8-8.6,18.8-12.9,32.4-12.9c7.6,0,14.3,1.3,20,3.8c5.7,2.5,11.6,6.8,17.4,12.7L350,27.9
	c-5.1-4.6-9.7-7.9-13.6-9.7c-3.9-1.9-8.3-2.8-13.1-2.8c-8.1,0-14.5,2.7-19.3,8.1c-4.8,5.4-7.2,12.9-7.2,22.5
	c0,9.8,2.3,17.5,6.9,22.9c4.6,5.4,11,8.1,19.2,8.1c6.9,0,12.4-1.8,16.3-5.3c3.9-3.5,5.9-8.3,5.9-14.4v-1.4H320z M433.6,2.1h16.9v88
	H432l-22.3-35.7l-2.5-4c-6.9-11.2-11.9-19.5-14.9-24.9c0.5,10.3,0.7,21.7,0.7,34.2v30.4h-16.9v-88h18.8L418.7,40l3.3,5.6
	c5.1,8.3,9.2,15,12.2,20.2c-0.4-8.7-0.6-19.3-0.6-31.7V2.1z M445.2,106.1v14.6h-44.5v20.6h41.7v14.6h-41.7v23.6h45.9v14.6h-63.2v-88
	H445.2z M453.3,298.1H434l-21.1-32.6h-16.2v32.6h-17.4v-88H421c8.4,0,15.4,2.6,20.8,7.8c5.5,5.2,8.2,11.8,8.2,20
	c0,6.4-1.7,12-5.1,16.6c-3.4,4.6-8.1,7.9-14,9.7L453.3,298.1z M396.7,224.5v26.7h21.2c4.7,0,8.4-1.2,11-3.5c2.6-2.3,4-5.6,4-9.8
	c0-4.2-1.3-7.5-4-9.9c-2.6-2.4-6.3-3.5-11-3.5H396.7z M412.9,312.1c7.3,0,13.5,1,18.7,3.1c5.2,2.2,10.7,5.7,16.5,10.5L438,337.9
	c-5.1-4.3-9.4-7.1-12.9-8.6c-3.6-1.5-7.7-2.2-12.5-2.2c-4.9,0-8.8,1-11.7,3c-2.9,2-4.4,4.6-4.4,7.8c0,2.2,0.7,3.9,2,5.2
	c1.4,1.3,3.5,2.4,6.4,3.3c3.6,1.2,8,2.3,13,3.5c11.7,2.9,19.8,6.1,24.3,9.5c4.5,3.5,6.8,8.8,7.1,16.1c0,8.4-3.2,15.3-9.5,20.6
	s-14.8,8-25.4,8c-7.7,0-14.5-1.2-20.3-3.7c-5.9-2.4-12.1-6.6-18.7-12.5l10.4-12.3c6,5.2,11,8.7,15,10.5c4.2,1.9,8.9,2.9,14,2.9
	c5.2,0,9.4-1.1,12.5-3.3c3.1-2.2,4.7-5.1,4.7-8.9c0-4-2.6-7-7.7-8.8c-2.4-0.7-5.9-1.6-10.4-2.6l-4.2-1c-11.7-2.8-19.6-6.1-23.9-9.9
	c-4.3-3.8-6.4-9.2-6.4-16.3c0-7.4,3.1-13.7,9.4-18.7C395,314.6,403.1,312.1,412.9,312.1z"/>
</svg>
