<?xml version="1.0" encoding="utf-8"?>
<!-- Generator: Adobe Illustrator 25.0.0, SVG Export Plug-In . SVG Version: 6.00 Build 0)  -->
<svg version="1.1" xmlns="http://www.w3.org/2000/svg" xmlns:xlink="http://www.w3.org/1999/xlink" x="0px" y="0px"
	 viewBox="0 0 92 30" style="enable-background:new 0 0 92 30;" xml:space="preserve">
<g id="logo-E">
</g>
<g id="logo_x5F_g">
</g>
<g id="logo_x5F_ssa">
</g>
<g id="Layer_4">
	<polygon points="20.4,-32.5 20.4,-37 1.4,-37 1.4,-11 20.4,-11 20.4,-15.5 6.9,-15.5 6.9,-22.5 18.4,-22.5 18.4,-27 6.9,-27 
		6.9,-32.5 	"/>
</g>
<g id="Layer_3">
	<path d="M24.9-62.5L10.7-65l-0.8,4.4l7.1,1.2c-0.9,3.1-3.3,5.3-7.1,5.3c-5,0-7.5-3.5-7.5-9s2.5-9,7.5-9c3.6,0,5.8,1.8,6.9,4.8
		l5-1.8c-2-4.8-6.4-7.5-11.9-7.5c-7.5,0-13,5-13,13.5s5.5,13.5,13,13.5c3.1,0,5.7-1.3,7.6-3.5l0.4,3h3.5v-8.5l2.7,0.5L24.9-62.5z"/>
</g>
<g id="Layer_2">
	<g>
		<path d="M76.4,2l-9.5,26h4.8l1.8-5l11.8,0l1.8,5h4.8L82.5,2H76.4z M75.2,18.5l4.2-11.7l4.2,11.7L75.2,18.5z"/>
		<path d="M14.8,13.1l-4.4-0.8C8,11.9,6.4,11,6.4,9c0-2,1.8-3,4.3-3c2.1,0,3.8,1.1,4.3,2.4l5-1.8c-1.2-2.9-4.6-5.1-9.2-5.1h0h0
			c-5.9,0-9.8,3-9.8,7.5c0,4.5,3.4,6.9,7.3,7.6l4.1,0.7c2.2,0.4,3.7,1.7,3.7,3.2c0,2.5-2.3,3.5-5.3,3.5c-2.5,0-4.6-1.4-5.2-2.8
			l-5,1.8c1.3,3.2,5.2,5.5,10.2,5.5c6.4,0,10.8-3,10.8-8C21.4,16.5,18.8,13.9,14.8,13.1z"/>
		<path d="M48.8,13.1l-4.4-0.8C42,11.9,40.4,11,40.4,9c0-2,1.8-3,4.3-3c2.1,0,3.8,1.1,4.3,2.4l5-1.8c-1.2-2.9-4.6-5.1-9.2-5.1h0h0
			c-5.9,0-9.8,3-9.8,7.5c0,4.5,3.4,6.9,7.3,7.6l4.1,0.7c2.2,0.4,3.7,1.7,3.7,3.2c0,2.5-2.3,3.5-5.3,3.5c-2.5,0-4.6-1.4-5.2-2.8
			l-5,1.8c1.3,3.2,5.2,5.5,10.2,5.5c6.4,0,10.8-3,10.8-8C55.4,16.5,52.8,13.9,48.8,13.1z"/>
	</g>
</g>
</svg>
